<?xml version="1.0" encoding="UTF-8"?>
<!DOCTYPE svg PUBLIC "-//W3C//DTD SVG 1.1//EN" "http://www.w3.org/Graphics/SVG/1.1/DTD/svg11.dtd">
<!-- Creator: CorelDRAW -->
<svg xmlns="http://www.w3.org/2000/svg" xml:space="preserve" width="210mm" height="297mm" version="1.1" style="shape-rendering:geometricPrecision; text-rendering:geometricPrecision; image-rendering:optimizeQuality; fill-rule:evenodd; clip-rule:evenodd"
viewBox="0 0 21000 29700"
 xmlns:xlink="http://www.w3.org/1999/xlink"
 xmlns:xodm="http://www.corel.com/coreldraw/odm/2003">
 <defs>
  <style type="text/css">
   <![CDATA[
    .str0 {stroke:#373435;stroke-width:20;stroke-miterlimit:22.9256}
    .fil1 {fill:none}
    .fil0 {fill:#373435}
    .fil2 {fill:#00A859}
   ]]>
  </style>
 </defs>
 <g id="Camada_x0020_1">
  <metadata id="CorelCorpID_0Corel-Layer"/>
  <ellipse class="fil0 str0" transform="matrix(0 1 -1 0 7931.03 11142.7)" rx="644.02" ry="653.71"/>
  <path class="fil0 str0" d="M9151.13 8947.49c-428.85,-0.48 -846.68,-0.01 -1253.49,1.4 -714.42,289.22 -888.42,630.28 -522.02,1023.16 2331.51,-28.75 4664.64,-34.32 6999.39,-16.71 336.51,-478.83 161.31,-813.19 -525.61,-1003.08 -898.97,-1.97 -1348.46,-2.95 -1348.46,-2.95 53.21,-721.05 -219.47,-1120.99 -818.05,-1199.83 -1081.95,-9.83 -1622.92,-14.75 -1622.92,-14.75 -606.51,40.68 -909.45,444.94 -908.84,1212.76z"/>
  <path class="fil1 str0" d="M10136.27 8295.48c-301.01,-6.11 -426.77,213.19 -377.28,657.92 1447.84,0 2171.76,0 2171.76,0 20.03,-150.86 21.07,-264.46 -16.72,-383.68 -57.49,-181.38 -255.95,-287.15 -296.06,-259.59 -1990.79,-19.68 -1990.79,-19.68 0,0"/>
  <path class="fil0 str0" d="M8030.31 15760.32c-343.08,-2328.96 -514.62,-3493.44 -514.62,-3493.44 359.27,-10.01 579.18,-8.51 659.74,4.49 423.44,35.65 629.89,278 619.34,727.05 223.72,1533.26 344.2,2403.55 361.45,2610.88 162.24,551.86 622.47,793.97 1380.69,726.31 734.25,-28.55 1102.56,-33.12 1104.92,-13.7 372.01,15.14 687.04,-191.84 945.11,-620.94 776.18,-3.05 1164.27,-4.57 1164.27,-4.57 -230.13,1033.48 -890.64,1607.24 -1981.54,1721.29 -645.27,-14.87 -1217.51,-17.91 -1716.73,-9.13 -1093.9,-90.19 -1768.11,-639.6 -2022.63,-1648.24z"/>
  <path class="fil2 str0" d="M15154.82 15029.82c138.03,362.39 669.93,314.41 650.02,-110.8 -217.36,-2634.45 -1698.82,-4115.91 -4444.37,-4444.37 -390.79,63.39 -411.95,533.72 -48.61,666.66 2314.52,219.63 3597.34,1543.37 3842.96,3888.51z"/>
  <path class="fil2 str0" d="M14020.82 14824.34c97.56,256.14 473.51,222.23 459.44,-78.31 -153.63,-1862.07 -1200.75,-2909.19 -3141.35,-3141.35 -276.21,44.81 -291.17,377.24 -34.35,471.21 1635.93,155.23 2542.65,1090.87 2716.26,2748.45z"/>
  <path class="fil2 str0" d="M13164.91 14963.19c74.81,196.41 363.08,170.4 352.29,-60.05 -117.8,-1427.78 -920.7,-2230.68 -2408.69,-2408.69 -211.8,34.36 -223.27,289.26 -26.35,361.31 1254.39,119.03 1949.63,836.45 2082.75,2107.43z"/>
  <path class="fil2 str0" d="M12412.72 15157.68c54.48,143.03 264.4,124.09 256.55,-43.73 -85.79,-1039.75 -670.49,-1624.45 -1754.09,-1754.08 -154.23,25.02 -162.58,210.64 -19.18,263.11 913.48,86.68 1419.78,609.13 1516.72,1534.7z"/>
 </g>
</svg>
