<svg width="19" height="19" xmlns="http://www.w3.org/2000/svg" xmlns:xlink="http://www.w3.org/1999/xlink" xml:space="preserve" overflow="hidden"><g transform="translate(-943 -176)"><path d="M13.244 18.6401C11.282 18.4739 9.72521 17.3831 9.05292 15.7016 8.8867 15.2861 8.77836 14.8616 8.70861 14.3437 8.68041 14.1374 8.67596 14.0365 8.67448 13.5645 8.67448 12.8789 8.7101 12.5212 8.84663 11.8519 8.90451 11.567 8.90451 11.5566 8.87928 11.5269 8.83624 11.4749 1.88182 3.85417 0.397735 2.2291 0 1.79426 0 1.79426 0 1.72748 0 1.66069 0.00593634 1.65327 0.537239 1.01511 0.834056 0.660418 1.14571 0.286428 1.23179 0.185511L1.38614 0 2.77524 0 4.16286 0 4.74462 0.546143 5.32638 1.0908 5.32638 1.585 5.32787 2.0792 5.39168 2.0703C5.68553 2.03023 6.32665 1.96048 6.33704 1.96641 6.34446 1.97087 6.60863 2.2662 6.92326 2.62089L7.4976 3.26796 7.46643 3.77551C7.44862 4.05304 7.43527 4.28901 7.43527 4.29643 7.43527 4.30682 7.60297 4.29049 7.88643 4.25487 8.13575 4.22222 8.34798 4.19996 8.35985 4.20441 8.37172 4.20887 8.56614 4.42851 8.7932 4.69268 9.02027 4.95536 9.21765 5.18539 9.23101 5.20172 9.25327 5.22695 9.26218 5.31006 9.28889 5.74935 9.30521 6.03429 9.32154 6.27026 9.32451 6.27323 9.32747 6.2762 9.51299 6.25097 9.7356 6.21832 9.95821 6.18418 10.1452 6.16341 10.1511 6.16934 10.1571 6.17528 10.5504 6.62941 11.0253 7.17852 11.5002 7.72763 11.8949 8.18028 11.9024 8.18473 11.9098 8.18918 12.0315 8.17583 12.1725 8.15653 12.6711 8.08381 12.9145 8.06749 13.4532 8.06749 13.9474 8.06749 14.0662 8.07342 14.4698 8.12685 14.9715 8.19363 15.4998 8.33611 15.9539 8.52607 17.5582 9.19836 18.646 10.6201 18.928 12.4099 18.9904 12.8106 19.0111 13.4992 18.9696 13.8539 18.8345 14.9937 18.4338 15.9539 17.7868 16.6885 17.7289 16.7538 17.6176 16.8844 17.5404 16.9779 16.8058 17.8565 15.6705 18.4398 14.357 18.6104 14.0899 18.646 13.4948 18.6609 13.244 18.6401ZM16.1839 15.6037C16.3264 15.5666 16.3591 15.5428 16.3813 15.4493 16.4066 15.3425 16.3962 15.1525 16.3576 15.0457 16.2552 14.7548 15.9346 14.547 15.6423 14.5797 15.5369 14.5915 15.384 14.642 15.3573 14.6746 15.3009 14.7384 15.2846 14.9507 15.3232 15.1006 15.3558 15.2237 15.4137 15.3247 15.5087 15.4211 15.6808 15.5948 15.945 15.6675 16.1839 15.6037Z" fill="#D9F2D0" transform="matrix(1 0 0 -1.0185 943.002 195)"/></g></svg>